FIA Thursday press conference - China

Drivers - Mark Webber (Red Bull Racing), Nico Rosberg (Mercedes), Sergio Perez (McLaren), Nico Hulkenberg (Sauber), Romain Grosjean (Lotus), Adrian Sutil (Force India) answer the questions of the press. 

Photo of drivers :
 
http://i.imgur.com/pLFixSI.jpg

Aired on l1 April 2013 Sky Sports F1. Runtime 28+ minutes.

Technical Information:

Video

Format                         : AVC
Format/Info                    : Advanced Video Codec
Format profile                 : Main@L3.0
Format settings, CABAC         : Yes
Format settings, ReFrames      : 3 frames
Format settings, GOP           : M=1, N=50
Codec ID                       : 7
Duration                       : 28mn 34s
Bit rate                       : 301 Kbps
Width                          : 624 pixels
Height                         : 328 pixels
Display aspect ratio           : 1.902
Frame rate mode                : Constant
Frame rate                     : 25.000 fps
Color space                    : YUV
Chroma subsampling             : 4:2:0
Bit depth                      : 8 bits
Scan type                      : Progressive
Bits/(Pixel*Frame)             : 0.059
Stream size                    : 61.5 MiB (69%)

Audio

Format                         : AAC
Format/Info                    : Advanced Audio Codec
Format profile                 : LC
Codec ID                       : 10
Duration                       : 28mn 34s
Bit rate                       : 129 Kbps
Channel(s)                     : 2 channels
Channel positions              : Front: L R
Sampling rate                  : 44.1 KHz
Compression mode               : Lossy
Stream size                    : 26.3 MiB (29%)


Screens : 
 
http://i.imgur.com/Pu6WJuD.jpg
 
http://i.imgur.com/ul5vs4g.jpg